<svg width="40" height="40" viewBox="0 0 40 40" fill="none" xmlns="http://www.w3.org/2000/svg">
<rect x="4" width="32" height="40" fill="#A5310F"/>
<rect y="36" width="32" height="40" transform="rotate(-90 0 36)" fill="#A5310F"/>
<rect x="36" y="36" width="32" height="4" transform="rotate(-90 36 36)" fill="#771F04"/>
<rect y="36" width="32" height="4" transform="rotate(-90 0 36)" fill="#771F04"/>
<rect x="4" y="36" width="32" height="4" fill="#771F04"/>
<rect x="4" width="32" height="4" fill="#771F04"/>
<rect x="32" y="36" width="4" height="4" transform="rotate(-90 32 36)" fill="#771F04"/>
<rect x="4" y="36" width="4" height="4" transform="rotate(-90 4 36)" fill="#771F04"/>
<rect x="32" y="8" width="4" height="4" transform="rotate(-90 32 8)" fill="#771F04"/>
<rect x="4" y="8" width="4" height="4" transform="rotate(-90 4 8)" fill="#771F04"/>
<rect x="6" y="14" width="4" height="8" transform="rotate(-90 6 14)" fill="#C95735"/>
<rect x="10" y="6" width="4" height="8" fill="#C95735"/>
<rect x="17" y="1" width="6" height="8" fill="#3E240B"/>
</svg>
