<svg width="100" height="100" viewBox="0 0 100 100" fill="none" xmlns="http://www.w3.org/2000/svg">
<rect width="100" height="100" fill="#44964A"/>
<rect x="7" y="6" width="3" height="10" fill="#5EC866"/>
<rect x="5" y="3" width="3" height="10" fill="#5EC866"/>
<rect width="3" height="10" transform="matrix(-1 0 0 1 19 16)" fill="#5EC866"/>
<rect width="3" height="10" transform="matrix(-1 0 0 1 21 13)" fill="#5EC866"/>
<rect x="31" y="6" width="3" height="10" fill="#5EC866"/>
<rect x="29" y="3" width="3" height="10" fill="#5EC866"/>
<rect width="3" height="10" transform="matrix(-1 0 0 1 43 16)" fill="#5EC866"/>
<rect width="3" height="10" transform="matrix(-1 0 0 1 45 13)" fill="#5EC866"/>
<rect x="57" y="6" width="3" height="10" fill="#5EC866"/>
<rect x="55" y="3" width="3" height="10" fill="#5EC866"/>
<rect width="3" height="10" transform="matrix(-1 0 0 1 69 16)" fill="#5EC866"/>
<rect width="3" height="10" transform="matrix(-1 0 0 1 71 13)" fill="#5EC866"/>
<rect x="81" y="6" width="3" height="10" fill="#5EC866"/>
<rect x="79" y="3" width="3" height="10" fill="#5EC866"/>
<rect width="3" height="10" transform="matrix(-1 0 0 1 93 16)" fill="#5EC866"/>
<rect width="3" height="10" transform="matrix(-1 0 0 1 95 13)" fill="#5EC866"/>
<rect x="7" y="31" width="3" height="10" fill="#5EC866"/>
<rect x="5" y="28" width="3" height="10" fill="#5EC866"/>
<rect width="3" height="10" transform="matrix(-1 0 0 1 19 41)" fill="#5EC866"/>
<rect width="3" height="10" transform="matrix(-1 0 0 1 21 38)" fill="#5EC866"/>
<rect x="31" y="31" width="3" height="10" fill="#5EC866"/>
<rect x="29" y="28" width="3" height="10" fill="#5EC866"/>
<rect width="3" height="10" transform="matrix(-1 0 0 1 43 41)" fill="#5EC866"/>
<rect width="3" height="10" transform="matrix(-1 0 0 1 45 38)" fill="#5EC866"/>
<rect x="57" y="31" width="3" height="10" fill="#5EC866"/>
<rect x="55" y="28" width="3" height="10" fill="#5EC866"/>
<rect width="3" height="10" transform="matrix(-1 0 0 1 69 41)" fill="#5EC866"/>
<rect width="3" height="10" transform="matrix(-1 0 0 1 71 38)" fill="#5EC866"/>
<rect x="81" y="31" width="3" height="10" fill="#5EC866"/>
<rect x="79" y="28" width="3" height="10" fill="#5EC866"/>
<rect width="3" height="10" transform="matrix(-1 0 0 1 93 41)" fill="#5EC866"/>
<rect width="3" height="10" transform="matrix(-1 0 0 1 95 38)" fill="#5EC866"/>
<rect x="7" y="56" width="3" height="10" fill="#5EC866"/>
<rect x="5" y="53" width="3" height="10" fill="#5EC866"/>
<rect width="3" height="10" transform="matrix(-1 0 0 1 19 66)" fill="#5EC866"/>
<rect width="3" height="10" transform="matrix(-1 0 0 1 21 63)" fill="#5EC866"/>
<rect x="31" y="56" width="3" height="10" fill="#5EC866"/>
<rect x="29" y="53" width="3" height="10" fill="#5EC866"/>
<rect width="3" height="10" transform="matrix(-1 0 0 1 43 66)" fill="#5EC866"/>
<rect width="3" height="10" transform="matrix(-1 0 0 1 45 63)" fill="#5EC866"/>
<rect x="57" y="56" width="3" height="10" fill="#5EC866"/>
<rect x="55" y="53" width="3" height="10" fill="#5EC866"/>
<rect width="3" height="10" transform="matrix(-1 0 0 1 69 66)" fill="#5EC866"/>
<rect width="3" height="10" transform="matrix(-1 0 0 1 71 63)" fill="#5EC866"/>
<rect x="81" y="56" width="3" height="10" fill="#5EC866"/>
<rect x="79" y="53" width="3" height="10" fill="#5EC866"/>
<rect width="3" height="10" transform="matrix(-1 0 0 1 93 66)" fill="#5EC866"/>
<rect width="3" height="10" transform="matrix(-1 0 0 1 95 63)" fill="#5EC866"/>
<rect x="8" y="80" width="3" height="10" fill="#5EC866"/>
<rect x="6" y="77" width="3" height="10" fill="#5EC866"/>
<rect width="3" height="10" transform="matrix(-1 0 0 1 20 90)" fill="#5EC866"/>
<rect width="3" height="10" transform="matrix(-1 0 0 1 22 87)" fill="#5EC866"/>
<rect x="32" y="80" width="3" height="10" fill="#5EC866"/>
<rect x="30" y="77" width="3" height="10" fill="#5EC866"/>
<rect width="3" height="10" transform="matrix(-1 0 0 1 44 90)" fill="#5EC866"/>
<rect width="3" height="10" transform="matrix(-1 0 0 1 46 87)" fill="#5EC866"/>
<rect x="58" y="80" width="3" height="10" fill="#5EC866"/>
<rect x="56" y="77" width="3" height="10" fill="#5EC866"/>
<rect width="3" height="10" transform="matrix(-1 0 0 1 70 90)" fill="#5EC866"/>
<rect width="3" height="10" transform="matrix(-1 0 0 1 72 87)" fill="#5EC866"/>
<rect x="82" y="80" width="3" height="10" fill="#5EC866"/>
<rect x="80" y="77" width="3" height="10" fill="#5EC866"/>
<rect width="3" height="10" transform="matrix(-1 0 0 1 94 90)" fill="#5EC866"/>
<rect width="3" height="10" transform="matrix(-1 0 0 1 96 87)" fill="#5EC866"/>
</svg>
