<svg width="284" height="247" viewBox="0 0 284 247" fill="none" xmlns="http://www.w3.org/2000/svg">
<rect x="54" y="15" width="100" height="71" fill="#0D5212"/>
<rect x="38" y="31" width="129" height="55" fill="#0D5212"/>
<rect x="52" y="147" width="190" height="93" fill="#0D5212"/>
<rect x="110" y="84" width="57" height="93" fill="#0D5212"/>
<rect x="24" y="42" width="14" height="30" fill="#171715"/>
<rect x="139" y="58" width="28" height="43" fill="#226626"/>
<rect x="38" y="42" width="28" height="30" fill="#226626"/>
<rect x="66" y="28" width="73" height="14" fill="#226626"/>
<rect x="96" y="42" width="57" height="16" fill="#226626"/>
<rect x="96" y="131" width="43" height="14" fill="#226626"/>
<rect x="124" y="117" width="15" height="14" fill="#226626"/>
<rect x="139" y="101" width="15" height="30" fill="#226626"/>
<rect x="38" y="72" width="72" height="14" fill="#171715"/>
<rect x="110" y="86" width="14" height="31" fill="#171715"/>
<rect x="96" y="117" width="14" height="14" fill="#171715"/>
<rect x="153" y="131" width="14" height="14" fill="#171715"/>
<rect x="66" y="42" width="14" height="16" fill="#171715"/>
<rect x="80" y="42" width="16" height="16" fill="#E0DDC8"/>
<rect x="242" y="72" width="28" height="15" fill="#A5310F"/>
<rect x="228" y="86" width="28" height="15" fill="#A5310F"/>
<rect y="72" width="38" height="15" fill="#A5310F"/>
<rect x="228" y="86" width="14" height="31" fill="#A5310F"/>
<rect x="242" y="58" width="28" height="14" fill="#171715"/>
<rect x="228" y="72" width="14" height="14" fill="#171715"/>
<rect x="270" y="72" width="14" height="14" fill="#171715"/>
<rect x="256" y="87" width="14" height="14" fill="#171715"/>
<rect x="214" y="86" width="14" height="59" fill="#171715"/>
<rect x="242" y="101" width="14" height="44" fill="#171715"/>
<rect x="52" y="145" width="204" height="14" fill="#171715"/>
<rect x="38" y="233" width="218" height="14" fill="#171715"/>
<rect x="38" y="159" width="14" height="33" fill="#171715"/>
<rect x="242" y="159" width="14" height="33" fill="#171715"/>
<rect x="24" y="192" width="14" height="41" fill="#171715"/>
<rect x="256" y="192" width="14" height="41" fill="#171715"/>
<rect x="82" y="131" width="14" height="14" fill="#171715"/>
<rect x="66" width="73" height="14" fill="#171715"/>
<rect x="52" y="14" width="14" height="14" fill="#171715"/>
<rect x="139" y="14" width="14" height="14" fill="#171715"/>
<rect x="153" y="28" width="14" height="14" fill="#171715"/>
<rect x="38" y="28" width="14" height="14" fill="#171715"/>
<rect x="167" y="42" width="14" height="89" fill="#171715"/>
<rect x="82" y="159" width="28" height="14" fill="#226626"/>
<rect x="110" y="159" width="43" height="14" fill="#44964A"/>
<rect x="66" y="14" width="73" height="14" fill="#44964A"/>
<rect x="52" y="173" width="190" height="19" fill="#0D4211"/>
<rect x="38" y="220" width="218" height="13" fill="#0D4211"/>
<rect x="66" y="159" width="16" height="14" fill="#44964A"/>
<rect x="167" y="159" width="14" height="14" fill="#44964A"/>
<rect x="52" y="159" width="14" height="14" fill="#44964A"/>
<rect x="214" y="159" width="28" height="14" fill="#44964A"/>
<rect x="228" y="206" width="28" height="14" fill="#44964A"/>
<rect x="38" y="206" width="14" height="14" fill="#44964A"/>
<rect x="197" y="206" width="17" height="14" fill="#44964A"/>
<rect x="96" y="206" width="14" height="14" fill="#44964A"/>
<rect x="124" y="206" width="43" height="14" fill="#44964A"/>
<rect x="153" y="159" width="14" height="14" fill="#226626"/>
<rect x="181" y="159" width="33" height="14" fill="#226626"/>
<rect x="214" y="206" width="14" height="14" fill="#226626"/>
<rect x="110" y="206" width="14" height="14" fill="#226626"/>
<rect x="167" y="206" width="30" height="14" fill="#226626"/>
<rect x="52" y="206" width="44" height="14" fill="#226626"/>
<rect x="38" y="192" width="218" height="14" fill="#012D05"/>
<rect x="110" y="72" width="29" height="15" fill="#012D05"/>
<rect x="124" y="58" width="15" height="43" fill="#012D05"/>
<rect x="228" y="131" width="14" height="14" fill="#226626"/>
<rect x="153" y="42" width="14" height="16" fill="#44964A"/>
<rect x="139" y="28" width="14" height="14" fill="#44964A"/>
<rect x="52" y="28" width="14" height="14" fill="#44964A"/>
<rect x="66" y="58" width="58" height="14" fill="#0D4211"/>
<rect x="153" y="101" width="14" height="30" fill="#0D4211"/>
<rect x="124" y="101" width="15" height="16" fill="#0D4211"/>
<rect x="139" y="131" width="14" height="14" fill="#0D4211"/>
<rect x="110" y="117" width="14" height="14" fill="#0D4211"/>
<rect x="228" y="117" width="14" height="14" fill="#0D4211"/>
</svg>
